<svg width="104" height="22" viewBox="0 0 104 22" fill="none" xmlns="http://www.w3.org/2000/svg">
    <g clip-path="url(#clip0_2410_2499)">
        <path d="M20.4 10.1V16.7H16.3V10.7C16.3 9 15.6 8.3 14.5 8.3C13.3 8.3 12.5 9.1 12.5 10.9V16.6H8.6V10.6C8.6 8.9 7.9 8.2 6.8 8.2C5.6 8.2 4.8 9 4.8 10.8V16.5H0.800003V5.1H4.7V6.3C5.5 5.4 6.7 4.9 8 4.9C9.6 4.9 10.9 5.5 11.7 6.7C12.6 5.5 14 4.9 15.7 4.9C18.5 4.9 20.4 6.5 20.4 10.1Z" fill="#201547"></path>
        <path d="M22.7 10.9C22.7 7.4 25.5 4.9 29.2 4.9C33 4.9 35.7 7.4 35.7 10.9C35.7 14.4 33 16.9 29.2 16.9C25.4 16.9 22.7 14.4 22.7 10.9ZM31.6 10.9C31.6 9.1 30.6 8.2 29.2 8.2C27.8 8.2 26.8 9.2 26.8 10.9C26.8 12.7 27.9 13.7 29.2 13.7C30.6 13.7 31.6 12.7 31.6 10.9Z" fill="#201547"></path>
        <path d="M50.1 10.1V16.7H46V10.7C46 9 45.3 8.3 44.1 8.3C42.8 8.3 41.8 9.1 41.8 11V16.6H37.7V5.1H41.6V6.4C42.5 5.4 43.8 4.9 45.3 4.9C48 4.9 50.1 6.5 50.1 10.1Z" fill="#201547"></path>
        <path d="M61.9 12.8L64 15C62.9 16.2 61.3 16.9 59.1 16.9C55 16.9 52.3 14.4 52.3 10.9C52.3 7.4 55 4.9 58.7 4.9C62 4.9 64.8 7 64.8 10.8L56.5 12.4C56.9 13.3 57.8 13.8 59.1 13.8C60.3 13.8 61.1 13.5 61.9 12.8ZM56.8 3.7H54.1L56.9 0.5H60.4L63.2 3.7H60.5L58.7 2.1L56.8 3.7ZM56.3 10.3L61 9.4C60.7 8.4 59.9 7.8 58.8 7.8C57.3 7.8 56.4 8.7 56.3 10.3Z" fill="#A4D65E"></path>
        <path d="M74.4 16.2C73.7 16.6 72.7 16.9 71.6 16.9C68.6 16.9 66.9 15.4 66.9 12.5V2.5H71V7L73.4 6.5V9.1L71 9.6V12.4C71 13.3 71.5 13.7 72.2 13.7C72.6 13.7 73.1 13.6 73.4 13.3L74.4 16.2Z" fill="#201547"></path>
        <path d="M88 5.1V16.7H84.1V15.5C83.3 16.4 82.2 16.8 80.7 16.8C77.6 16.8 75 14.5 75 10.8C75 7.1 77.5 4.8 80.7 4.8C82 4.8 83.1 5.2 83.9 6V5L88 5.1ZM84 10.9C84 9.1 82.9 8.2 81.6 8.2C80.2 8.2 79.2 9.2 79.2 10.9C79.2 12.7 80.3 13.7 81.6 13.7C83 13.7 84 12.7 84 10.9Z" fill="#201547"></path>
        <path d="M103.3 5.1V14.6C103.3 19 100.8 21 96.5 21C94.3 21 92.2 20.5 90.8 19.5L92.3 16.7C93.3 17.5 94.8 17.9 96.2 17.9C98.4 17.9 99.3 16.9 99.3 15.1V14.7C98.5 15.6 97.3 16.1 95.9 16.1C92.8 16.1 90.2 13.9 90.2 10.5C90.2 7.1 92.8 4.9 95.9 4.9C97.5 4.9 98.7 5.4 99.5 6.5V5.1H103.3ZM99.3 10.5C99.3 9.1 98.2 8.2 96.8 8.2C95.3 8.2 94.3 9.1 94.3 10.5C94.3 11.9 95.4 12.9 96.8 12.9C98.2 12.9 99.3 11.9 99.3 10.5Z" fill="#201547"></path>
        <path d="M58.8 19.9L60.6 18.3H63.3L60.5 21.5H57L54.2 18.3H56.9L58.8 19.9Z" fill="#A4D65E"></path>
    </g>
    <defs>
        <clipPath id="clip0_2410_2499">
            <rect width="104" height="22" fill="white"></rect>
        </clipPath>
    </defs>
</svg>